D:\school\WTK\thesis\model\3dpredictsim\Results\debug_batch\Pog_s1_tmt_aCst_d05_k1000_ig24_pas_GRF.mot
nRows=25
nColumns=19

name D:\school\WTK\thesis\model\3dpredictsim\Results\debug_batch\Pog_s1_tmt_aCst_d05_k1000_ig24_pas_GRF.mot
datacolumns 19
datarows 25
range 0.5541397494 0.8201268291
endheader
time 	ground_force_vx	ground_force_vy	ground_force_vz	ground_force_px	ground_force_py	ground_force_pz	1_ground_force_vx	1_ground_force_vy	1_ground_force_vz	1_ground_force_px	1_ground_force_py	1_ground_force_pz	ground_torque_x	ground_torque_y	ground_torque_z	1_ground_torque_x	1_ground_torque_y	1_ground_torque_z
        0.5541397494	       94.7254631236	      471.8542563884	        5.4785626413	        0.3707265385	        0.0000000000	        0.0349955352	     -102.1618543495	       93.8803556027	      -41.8913375576	        0.8590942696	        0.0000000000	       -0.0377466192	        0.0000000000	        0.0000000000	        0.0000000000	        0.0000000000	        0.0000000000	        0.0000000000	
        0.5652225444	       76.0440303429	      389.3266292166	        9.9138885980	        0.3749043669	        0.0000000000	        0.0336822509	      -92.1280048230	      196.1824125293	      -73.6475264496	        0.8655655342	        0.0000000000	       -0.0360162856	        0.0000000000	        0.0000000000	        0.0000000000	        0.0000000000	        0.0000000000	        0.0000000000	
        0.5763053394	       53.0290855099	      297.0755929245	        7.4843613593	        0.3816287595	        0.0000000000	        0.0309732233	      -45.7925900084	      354.8999894548	      -16.1050883165	        0.8697964723	        0.0000000000	       -0.0344056193	        0.0000000000	        0.0000000000	        0.0000000000	        0.0000000000	        0.0000000000	        0.0000000000	
        0.5873881344	       24.1486183807	      195.4942277252	        6.2474955605	        0.3943296060	        0.0000000000	        0.0251473656	      -52.9751338278	      527.9354517012	        2.7389943802	        0.8759122642	        0.0000000000	       -0.0356894446	        0.0000000000	        0.0000000000	        0.0000000000	        0.0000000000	        0.0000000000	        0.0000000000	
        0.5984709294	        5.9388097161	      138.8638398193	       10.6009323021	        0.4055905152	        0.0000000000	        0.0194037404	      -86.4846539856	      703.6439605076	       10.2047399571	        0.8838005192	        0.0000000000	       -0.0380756408	        0.0000000000	        0.0000000000	        0.0000000000	        0.0000000000	        0.0000000000	        0.0000000000	
        0.6095537243	        1.6225139443	      107.6804707501	       11.5770829190	        0.4057986470	        0.0000000000	        0.0196061046	     -106.4748970178	      806.0806736292	       12.8665021488	        0.8891649376	        0.0000000000	       -0.0395867201	        0.0000000000	        0.0000000000	        0.0000000000	        0.0000000000	        0.0000000000	        0.0000000000	
        0.6206365193	       -2.3535419043	       70.3228114581	       10.8353185026	        0.4062587534	        0.0000000000	        0.0196808186	     -109.6992329883	      839.6463663859	       13.5872695180	        0.8928874160	        0.0000000000	       -0.0404802123	        0.0000000000	        0.0000000000	        0.0000000000	        0.0000000000	        0.0000000000	        0.0000000000	
        0.6317193143	       -8.3320978832	       28.9571250029	        5.7264533299	        0.4058755817	        0.0000000000	        0.0194827264	     -104.4671731794	      833.8192566632	       13.6580418122	        0.8960315354	        0.0000000000	       -0.0409950854	        0.0000000000	        0.0000000000	        0.0000000000	        0.0000000000	        0.0000000000	        0.0000000000	
        0.6428021093	        0.1087669207	       -0.1076985215	       -0.0022191899	        0.0000000000	        0.0000000000	        0.0000000000	      -95.3809532903	      815.6122194739	       13.9344721985	        0.8993448004	        0.0000000000	       -0.0412356584	        0.0000000000	        0.0000000000	        0.0000000000	        0.0000000000	        0.0000000000	        0.0000000000	
        0.6538849043	        0.0002108953	       -0.0001714748	        0.0000118661	        0.0000000000	        0.0000000000	        0.0000000000	      -83.4143817897	      786.7526879589	       14.6455892246	        0.9028110397	        0.0000000000	       -0.0413297458	        0.0000000000	        0.0000000000	        0.0000000000	        0.0000000000	        0.0000000000	        0.0000000000	
        0.6649676993	        0.0000961937	       -0.0000679750	        0.0000071225	        0.0000000000	        0.0000000000	        0.0000000000	      -72.9514909756	      755.2777892047	       15.0297533683	        0.9069742138	        0.0000000000	       -0.0413122564	        0.0000000000	        0.0000000000	        0.0000000000	        0.0000000000	        0.0000000000	        0.0000000000	
        0.6760504943	        0.0009505902	       -0.0006021157	        0.0000784807	        0.0000000000	        0.0000000000	        0.0000000000	      -63.4971714835	      724.5628077749	       15.2717407805	        0.9115416532	        0.0000000000	       -0.0411998388	        0.0000000000	        0.0000000000	        0.0000000000	        0.0000000000	        0.0000000000	        0.0000000000	
        0.6871332893	        0.0047554865	       -0.0027616919	        0.0004163530	        0.0000000000	        0.0000000000	        0.0000000000	      -54.0480522572	      693.5735171024	       15.8089283216	        0.9160180890	        0.0000000000	       -0.0411149024	        0.0000000000	        0.0000000000	        0.0000000000	        0.0000000000	        0.0000000000	        0.0000000000	
        0.6982160842	       -0.0329161587	        0.0178049726	       -0.0029947912	        0.0000000000	        0.0000000000	        0.0000000000	      -45.1422280742	      664.5854347753	       16.3718592421	        0.9204435492	        0.0000000000	       -0.0410918096	        0.0000000000	        0.0000000000	        0.0000000000	        0.0000000000	        0.0000000000	        0.0000000000	
        0.7092988792	       -0.0220595661	        0.0112322977	       -0.0020701780	        0.0000000000	        0.0000000000	        0.0000000000	      -37.3929888011	      639.7703059433	       16.8229984198	        0.9248980985	        0.0000000000	       -0.0411149707	        0.0000000000	        0.0000000000	        0.0000000000	        0.0000000000	        0.0000000000	        0.0000000000	
        0.7203816742	       -0.0151332498	        0.0073168330	       -0.0014540615	        0.0000000000	        0.0000000000	        0.0000000000	      -30.8514081455	      619.3196705160	       17.4239435114	        0.9294235213	        0.0000000000	       -0.0411594492	        0.0000000000	        0.0000000000	        0.0000000000	        0.0000000000	        0.0000000000	        0.0000000000	
        0.7314644692	       -0.0133260257	        0.0061635717	       -0.0012997254	        0.0000000000	        0.0000000000	        0.0000000000	      -25.3361885644	      603.5129441343	       17.8626904943	        0.9342648479	        0.0000000000	       -0.0412053024	        0.0000000000	        0.0000000000	        0.0000000000	        0.0000000000	        0.0000000000	        0.0000000000	
        0.7425472642	       -0.0156541177	        0.0069647043	       -0.0015418478	        0.0000000000	        0.0000000000	        0.0000000000	      -21.3499511917	      592.5638317297	       18.0297469214	        0.9394652018	        0.0000000000	       -0.0412249345	        0.0000000000	        0.0000000000	        0.0000000000	        0.0000000000	        0.0000000000	        0.0000000000	
        0.7536300592	       -0.0237197414	        0.0101982304	       -0.0023388013	        0.0000000000	        0.0000000000	        0.0000000000	      -18.1428684627	      585.6591523645	       18.0050628621	        0.9450119707	        0.0000000000	       -0.0412000075	        0.0000000000	        0.0000000000	        0.0000000000	        0.0000000000	        0.0000000000	        0.0000000000	
        0.7647128542	       -0.0433801616	        0.0180994166	       -0.0042545983	        0.0000000000	        0.0000000000	        0.0000000000	      -16.5677871029	      582.0402734778	       17.9887825513	        0.9508010370	        0.0000000000	       -0.0411216881	        0.0000000000	        0.0000000000	        0.0000000000	        0.0000000000	        0.0000000000	        0.0000000000	
        0.7757956492	       -0.0882829446	        0.0358867266	       -0.0085770211	        0.0000000000	        0.0000000000	        0.0000000000	      -15.6564366226	      580.8443257330	       17.7802900722	        0.9566514327	        0.0000000000	       -0.0410037104	        0.0000000000	        0.0000000000	        0.0000000000	        0.0000000000	        0.0000000000	        0.0000000000	
        0.7868784442	       -0.1844383823	        0.0733147933	       -0.0176913432	        0.0000000000	        0.0000000000	        0.0000000000	      -14.5878352011	      580.7345442889	       17.6710027910	        0.9625490140	        0.0000000000	       -0.0408504817	        0.0000000000	        0.0000000000	        0.0000000000	        0.0000000000	        0.0000000000	        0.0000000000	
        0.7979612391	       -0.3685745522	        0.1437826598	       -0.0348409042	        0.0000000000	        0.0000000000	        0.0000000000	      -13.4297883737	      580.6027621159	       17.5151048887	        0.9684124170	        0.0000000000	       -0.0406753051	        0.0000000000	        0.0000000000	        0.0000000000	        0.0000000000	        0.0000000000	        0.0000000000	
        0.8090440341	       -0.6650607012	        0.2555292371	       -0.0617939722	        0.0000000000	        0.0000000000	        0.0000000000	      -11.9273456149	      579.7023163044	       17.2865808355	        0.9741749499	        0.0000000000	       -0.0404911410	        0.0000000000	        0.0000000000	        0.0000000000	        0.0000000000	        0.0000000000	        0.0000000000	
        0.8201268291	       -1.0482904444	        0.3980047479	       -0.0954009635	        0.0000000000	        0.0000000000	        0.0000000000	      -10.0148236120	      577.5083720116	       17.0041617892	        0.9798305427	        0.0000000000	       -0.0403039885	        0.0000000000	        0.0000000000	        0.0000000000	        0.0000000000	        0.0000000000	        0.0000000000	
